<?xml version="1.0" encoding="UTF-8" ?>
<!DOCTYPE svg PUBLIC "-//W3C//DTD SVG 1.1//EN" "http://www.w3.org/Graphics/SVG/1.1/DTD/svg11.dtd">
<svg width="196pt" height="212pt" viewBox="0 0 196 212" version="1.1" xmlns="http://www.w3.org/2000/svg">
<path fill="#8bc34a" d=" M 0.00 0.00 L 196.00 0.00 L 196.00 212.00 L 0.00 212.00 L 0.00 0.00 Z" />
<path fill="#c6dcac" d=" M 86.03 6.01 C 90.47 5.47 94.86 3.93 99.37 4.68 C 105.63 4.17 111.69 6.04 117.74 7.32 C 130.35 10.77 141.99 17.51 151.35 26.61 C 154.66 30.74 158.76 34.24 161.54 38.78 C 165.71 45.51 170.13 52.31 171.77 60.18 C 174.12 67.61 174.10 75.46 175.90 83.00 C 174.26 90.68 173.44 98.57 171.27 106.13 C 166.21 117.33 160.89 128.97 151.63 137.38 C 147.20 141.19 142.93 145.37 137.56 147.85 C 131.96 150.48 126.58 153.56 120.87 155.94 C 116.91 157.71 112.47 157.38 108.32 158.35 C 103.96 159.37 99.50 159.65 95.04 159.71 C 90.27 158.71 85.43 158.15 80.65 157.26 C 65.75 153.33 51.60 145.62 41.15 134.16 C 33.27 125.50 27.93 114.91 23.48 104.17 C 23.65 103.69 23.98 102.73 24.15 102.24 C 22.06 96.72 21.05 90.88 20.07 85.08 C 20.95 68.06 25.17 50.55 35.76 36.86 C 44.84 26.09 55.33 15.84 68.69 10.66 C 74.33 8.65 80.06 6.71 86.03 6.01 Z" />
<path fill="#388e3c" d=" M 88.44 10.56 C 102.47 8.75 117.03 10.97 129.73 17.27 C 145.58 24.95 158.39 38.71 164.87 55.10 C 171.57 71.64 171.79 90.70 165.46 107.39 C 159.83 122.55 148.88 135.66 134.97 143.90 C 123.85 150.51 110.93 154.16 97.98 154.02 C 80.27 154.18 62.62 147.33 49.55 135.39 C 37.10 124.18 28.82 108.46 26.61 91.85 C 24.48 76.26 27.49 60.00 35.34 46.34 C 46.17 26.98 66.45 13.34 88.44 10.56 Z" />
<path fill="#ffffff" d=" M 85.55 37.93 C 88.70 35.52 92.51 33.23 96.65 34.19 C 100.72 34.79 103.57 38.00 105.66 41.27 C 109.38 41.90 112.64 43.87 114.86 46.92 C 118.34 45.45 122.48 44.96 125.80 47.15 C 130.53 49.76 132.19 55.82 130.38 60.75 C 133.73 62.30 136.46 64.90 137.82 68.39 C 141.54 69.96 145.17 72.72 145.80 76.98 C 147.02 82.25 143.45 87.21 138.85 89.42 C 140.79 91.86 142.71 94.70 142.28 97.99 C 142.18 104.42 135.39 109.63 129.15 107.99 C 126.29 107.42 124.25 105.19 122.36 103.15 C 119.00 104.67 115.33 105.12 111.72 104.28 C 110.67 105.15 109.61 106.02 108.55 106.89 C 108.41 111.61 107.27 116.52 108.58 121.15 C 110.97 125.72 118.32 121.80 120.57 126.46 C 121.36 128.34 120.23 129.93 118.31 130.20 C 115.81 126.07 109.81 128.83 106.70 125.31 C 102.39 120.56 104.41 113.64 104.53 107.89 C 102.84 107.18 101.17 106.42 99.53 105.63 C 97.45 106.29 95.35 106.86 93.23 107.33 C 93.78 112.21 95.18 117.84 92.10 122.18 C 89.22 126.16 83.85 126.04 79.49 126.84 C 78.82 128.39 78.43 130.99 76.10 130.16 C 74.69 128.48 73.94 125.50 75.99 124.00 C 79.86 121.46 85.45 123.31 88.92 119.94 C 91.10 116.04 89.52 111.35 89.27 107.15 C 86.34 107.98 83.31 108.37 80.26 108.18 C 77.48 110.69 73.81 112.77 69.93 111.75 C 66.09 111.14 63.62 107.88 61.80 104.74 C 56.24 104.58 50.75 100.79 50.12 95.00 C 49.11 89.64 53.03 84.98 57.69 82.97 C 58.16 81.49 58.63 80.01 59.12 78.54 C 54.10 77.04 49.59 72.56 50.22 66.99 C 50.17 62.47 53.84 59.27 57.49 57.30 C 57.84 53.55 59.06 49.56 62.44 47.46 C 65.39 45.25 69.22 45.35 72.65 46.09 C 74.02 43.49 75.40 40.59 78.18 39.24 C 80.39 37.87 83.06 38.03 85.55 37.93 Z" />
<path fill="#388e3c" d=" M 86.83 42.33 C 89.37 39.73 92.82 36.94 96.71 38.30 C 100.19 39.02 101.44 42.54 103.12 45.20 C 105.14 45.86 107.41 45.73 109.31 46.79 C 111.01 48.25 111.92 50.36 113.33 52.07 C 115.36 51.55 117.11 50.32 119.10 49.70 C 122.63 48.95 126.44 51.54 127.01 55.11 C 127.75 57.97 125.64 60.46 124.87 63.08 C 127.10 64.40 129.86 64.54 131.97 66.08 C 133.29 67.59 133.78 69.60 134.80 71.30 C 137.49 72.80 141.17 73.79 141.79 77.33 C 143.16 82.01 138.95 85.73 134.76 86.63 C 132.80 91.33 139.31 93.50 138.27 98.12 C 138.07 102.01 133.91 105.07 130.14 104.14 C 127.21 103.77 125.90 100.82 123.85 99.10 C 121.97 98.74 120.23 99.79 118.47 100.24 C 115.89 101.26 113.14 100.41 110.54 100.00 C 109.09 101.26 107.93 103.14 105.95 103.61 C 103.47 104.08 101.66 102.03 99.76 100.82 C 96.72 103.02 93.13 103.13 89.55 102.62 C 86.23 103.97 82.75 104.45 79.18 104.00 C 76.64 105.97 73.90 109.01 70.30 107.77 C 66.80 107.02 65.80 103.32 64.35 100.57 C 61.83 100.16 58.95 100.84 56.81 99.11 C 54.00 97.12 53.11 92.91 54.99 89.99 C 56.18 87.61 58.97 87.01 61.18 85.97 C 61.54 82.32 63.05 79.00 65.47 76.26 C 63.40 73.46 59.33 75.48 56.90 73.24 C 53.46 70.84 53.23 65.14 56.48 62.50 C 58.04 61.33 59.97 60.87 61.74 60.15 C 61.46 56.31 61.86 51.36 66.19 49.96 C 69.55 48.20 72.33 51.53 75.57 51.68 C 76.78 48.84 76.36 45.00 79.29 43.15 C 81.45 41.43 84.32 42.17 86.83 42.33 Z" />
<path fill="#ffffff" d=" M 57.85 171.00 C 60.28 171.00 62.72 171.00 65.15 171.00 C 65.15 174.71 65.15 178.42 65.16 182.13 C 67.72 182.14 70.28 182.14 72.84 182.13 C 72.85 178.42 72.85 174.71 72.85 171.00 C 75.28 171.00 77.72 171.00 80.15 171.00 C 80.15 174.71 80.15 178.42 80.15 182.13 C 79.25 182.14 77.46 182.17 76.56 182.19 C 76.53 183.45 76.51 184.72 76.48 185.99 C 75.27 185.99 74.06 186.00 72.85 186.01 C 72.85 189.72 72.85 193.42 72.84 197.13 C 70.28 197.14 67.72 197.14 65.16 197.13 C 65.15 193.42 65.15 189.72 65.15 186.01 C 63.94 186.00 62.73 185.99 61.52 185.99 C 61.49 184.72 61.46 183.45 61.44 182.19 C 60.54 182.17 58.75 182.14 57.85 182.13 C 57.85 178.42 57.85 174.71 57.85 171.00 Z" />
<path fill="#ffffff" d=" M 91.52 171.00 C 97.74 171.00 103.96 171.00 110.18 171.00 C 110.15 172.28 110.12 173.56 110.10 174.84 C 105.13 174.84 100.16 174.83 95.19 174.88 C 95.16 176.07 95.13 177.27 95.10 178.47 C 94.21 178.49 92.42 178.54 91.52 178.56 C 91.50 182.31 91.50 186.06 91.53 189.81 C 92.43 189.82 94.23 189.86 95.13 189.87 C 95.14 190.77 95.18 192.57 95.20 193.48 C 97.74 193.49 100.28 193.49 102.83 193.47 C 102.84 190.98 102.85 188.50 102.85 186.01 C 101.57 186.00 100.28 186.00 99.00 185.99 C 99.00 184.71 99.00 183.43 99.00 182.15 C 102.71 182.15 106.41 182.15 110.12 182.16 C 110.17 187.15 110.16 192.15 110.15 197.15 C 103.94 197.16 97.74 197.17 91.53 197.14 C 91.51 196.24 91.46 194.45 91.44 193.56 C 90.55 193.54 88.78 193.49 87.89 193.47 C 87.87 192.28 87.84 191.09 87.82 189.91 C 86.54 189.88 85.27 189.84 84.00 189.81 C 84.00 186.05 84.00 182.29 84.00 178.52 C 85.27 178.49 86.54 178.46 87.81 178.44 C 87.83 177.54 87.86 175.76 87.87 174.87 C 88.76 174.86 90.55 174.83 91.44 174.81 C 91.47 173.54 91.49 172.27 91.52 171.00 Z" />
<path fill="#ffffff" d=" M 121.52 171.00 C 127.74 171.00 133.96 171.00 140.18 171.00 C 140.15 172.28 140.12 173.56 140.10 174.84 C 135.13 174.84 130.16 174.83 125.19 174.88 C 125.16 176.07 125.13 177.27 125.11 178.47 C 124.21 178.49 122.42 178.54 121.52 178.56 C 121.49 182.31 121.50 186.06 121.53 189.81 C 122.43 189.82 124.23 189.85 125.13 189.87 C 125.14 190.77 125.18 192.57 125.20 193.48 C 127.74 193.49 130.28 193.49 132.83 193.47 C 132.84 190.98 132.85 188.50 132.85 186.01 C 131.57 186.00 130.28 186.00 129.00 185.99 C 129.00 184.71 129.00 183.43 129.00 182.15 C 132.71 182.15 136.41 182.15 140.12 182.16 C 140.17 187.15 140.16 192.15 140.15 197.15 C 133.94 197.15 127.74 197.17 121.54 197.13 C 121.51 196.24 121.46 194.45 121.44 193.56 C 120.25 193.53 119.07 193.49 117.89 193.46 C 117.87 192.57 117.84 190.80 117.82 189.91 C 116.54 189.87 115.27 189.84 114.00 189.82 C 114.00 186.05 114.00 182.29 114.00 178.53 C 115.27 178.49 116.54 178.46 117.81 178.44 C 117.83 177.54 117.86 175.76 117.87 174.87 C 118.76 174.86 120.54 174.83 121.44 174.81 C 121.46 173.54 121.49 172.27 121.52 171.00 Z" />
</svg>
